<svg width="153" height="50" viewBox="0 0 153 50" fill="none" xmlns="http://www.w3.org/2000/svg">
<path d="M37.5413 17.6568H19.7195V22.9373H32.3432C31.7244 30.363 25.5363 33.4984 19.7195 33.4984C12.2525 33.4984 5.77558 27.6403 5.77558 19.4307C5.77558 11.4274 11.9637 5.28053 19.7195 5.28053C25.7013 5.28053 29.2492 9.11717 29.2492 9.11717L32.9621 5.28053C32.9621 5.28053 28.2178 0 19.5545 0C8.53961 0 0 9.32344 0 19.3482C0 29.2079 8.04456 38.8201 19.8432 38.8201C30.2393 38.8201 37.83 31.6832 37.83 21.1634C37.83 18.9356 37.5413 17.6568 37.5413 17.6568Z" fill="#4285F4"/>
<path d="M52.1045 13.8201C44.8025 13.8201 39.5633 19.5544 39.5633 26.1964C39.5633 32.962 44.6375 38.7789 52.187 38.7789C59.0352 38.7789 64.6045 33.5396 64.6045 26.3614C64.6458 18.0693 58.1276 13.8201 52.1045 13.8201ZM52.187 18.7294C55.7761 18.7294 59.2002 21.6171 59.2002 26.3201C59.2002 30.8993 55.8174 33.9109 52.187 33.9109C48.1854 33.9109 45.0501 30.7343 45.0501 26.3201C45.0501 21.9472 48.1441 18.7294 52.187 18.7294Z" fill="#EA4335"/>
<path d="M79.4138 13.8201C72.1118 13.8201 66.8726 19.5544 66.8726 26.1964C66.8726 32.962 71.9468 38.7789 79.4963 38.7789C86.3445 38.7789 91.9138 33.5396 91.9138 26.3614C91.9138 18.0693 85.3957 13.8201 79.4138 13.8201ZM79.4963 18.7294C83.0854 18.7294 86.5095 21.6171 86.5095 26.3201C86.5095 30.8993 83.1267 33.9109 79.4963 33.9109C75.4947 33.9109 72.3594 30.7343 72.3594 26.3201C72.3181 21.9472 75.4534 18.7294 79.4963 18.7294Z" fill="#FBBC05"/>
<path d="M106.148 13.8201C99.4231 13.8201 94.1838 19.6782 94.1838 26.2789C94.1838 33.7871 100.289 38.7789 106.065 38.7789C109.613 38.7789 111.511 37.3762 112.913 35.7261V38.2013C112.913 42.4917 110.314 45.0908 106.354 45.0908C102.558 45.0908 100.619 42.2442 99.9594 40.6353L95.1739 42.6568C96.8654 46.2459 100.289 50 106.395 50C113.078 50 118.152 45.7921 118.152 37.0049V14.5627H112.913V16.6667C111.304 14.9752 109.077 13.8201 106.148 13.8201ZM106.643 18.7294C109.943 18.7294 113.326 21.5346 113.326 26.3201C113.326 31.1881 109.943 33.8696 106.601 33.8696C103.012 33.8696 99.7119 30.9818 99.7119 26.3614C99.6706 21.5759 103.136 18.7294 106.643 18.7294Z" fill="#4285F4"/>
<path d="M141.378 13.8201C135.066 13.8201 129.744 18.8531 129.744 26.2789C129.744 34.1584 135.685 38.8201 141.997 38.8201C147.277 38.8201 150.536 35.9323 152.434 33.3333L148.102 30.4455C146.988 32.1782 145.091 33.8696 141.997 33.8696C138.49 33.8696 136.881 31.9307 135.891 30.0742L152.64 23.1436L151.774 21.1221C150.165 17.1204 146.37 13.8201 141.378 13.8201ZM141.625 18.6056C143.894 18.6056 145.545 19.802 146.246 21.2871L135.066 25.9488C134.571 22.3185 137.995 18.6056 141.625 18.6056Z" fill="#EA4335"/>
<path d="M127.269 1.27897H121.782V38.0777H127.269V1.27897Z" fill="#34A853"/>
</svg>
