<svg width="197" height="38" viewBox="0 0 197 38" fill="none" xmlns="http://www.w3.org/2000/svg">
<path d="M12.4389 37.4189H5.0412V18.9704H0V12.9662H5.0412V8.69432C5.0412 3.6316 7.26858 0 14.6501 0C16.2104 0 18.6637 0.31205 18.6637 0.31205V5.89127H16.0866C13.4665 5.89127 12.4389 6.68753 12.4389 8.89339V12.9662H18.5615L18.0181 18.9704H12.4389V37.4189ZM29.4187 12.4873C29.311 12.4873 29.1981 12.4927 29.0905 12.4927C22.2308 12.4927 19.0888 17.6523 19.0888 24.98C19.0888 34.207 23.1615 37.9032 29.1443 37.9032C32.566 37.9032 34.8149 36.4613 36.1815 33.7766V37.4243H43.2187V12.9715H36.1815V16.7323C35.0678 14.3112 32.7543 12.5196 29.4187 12.4873ZM31.2102 18.2656C34.094 18.2656 35.821 20.2778 35.821 23.6942L35.8264 27.1859C35.8264 29.4886 34.3953 32.1841 31.2102 32.1841C26.3089 32.1841 26.438 26.89 26.438 25.1253C26.438 19.1964 29.0474 18.2656 31.2102 18.2656ZM46.0648 25.2006C46.0648 22.2308 45.9249 12.5088 58.5898 12.5088C63.6741 12.5088 65.7992 14.1283 65.7992 14.1283L64.0937 19.4223C64.0937 19.4223 61.9739 18.2549 59.2085 18.2549C55.6684 18.2549 53.4141 20.3047 53.4141 23.9148L53.4195 26.5026C53.4195 29.9728 55.5985 32.2863 59.2193 32.2863C61.7372 32.2863 64.056 31.108 64.056 31.108L65.7562 36.2891C65.7562 36.2891 63.8139 37.9139 58.6275 37.9139C46.5598 37.9085 46.0648 29.1873 46.0648 25.2006ZM107.065 12.4927C113.925 12.4927 117.115 17.6523 117.115 24.98C117.115 34.207 113.042 37.9032 107.06 37.9032C103.638 37.9032 101.109 36.4613 99.7426 33.7766V37.4243L92.7914 37.4189V0.742463L100.168 0.096847V16.3987C101.233 13.5472 104.73 12.4927 107.065 12.4927ZM104.994 18.2656C102.11 18.2656 100.168 20.2778 100.168 23.6942L100.162 27.1859C100.157 29.4886 101.507 32.1841 104.994 32.1841C109.895 32.1841 109.766 26.89 109.766 25.1253C109.766 19.1964 107.156 18.2656 104.994 18.2656ZM78.5986 12.5142C70.8189 12.5142 66.7085 16.7592 66.7085 24.2968V25.6956C66.7085 35.4821 72.476 38 79.3572 38C86.0447 38 89.0684 36.1277 89.0684 36.1277L87.6857 31.1457C87.6857 31.1457 84.124 32.6629 80.2395 32.6629C76.2098 32.6629 74.4774 31.6353 74.0308 27.7616H89.6548V23.7641C89.6602 15.5971 85.044 12.5142 78.5986 12.5142ZM78.7869 17.5016C81.4823 17.5016 83.2255 19.1533 83.1287 22.984H74.047C74.203 18.9543 76.0861 17.5016 78.7869 17.5016ZM131.824 12.482C123.835 12.482 119.628 16.9851 119.628 25.0554C119.628 36.1277 126.88 37.9139 131.841 37.9139C139.104 37.9139 143.935 34.0026 143.935 25.1576C143.93 15.9521 138.501 12.482 131.824 12.482ZM131.722 18.2871C135.235 18.2871 136.629 20.918 136.629 23.9094V26.4811C136.629 30.1073 134.681 32.2056 131.711 32.2056C128.93 32.2056 126.977 30.2418 126.977 26.4811V23.9094C126.977 19.8958 129.301 18.2871 131.722 18.2871ZM158.628 12.482C150.639 12.482 146.432 16.9851 146.432 25.0554C146.432 36.1277 153.684 37.9139 158.644 37.9139C165.908 37.9139 170.739 34.0026 170.739 25.1576C170.734 15.9521 165.305 12.482 158.628 12.482ZM158.531 18.2871C162.045 18.2871 163.438 20.918 163.438 23.9094V26.4811C163.438 30.1073 161.491 32.2056 158.521 32.2056C155.739 32.2056 153.786 30.2418 153.786 26.4811V23.9094C153.786 19.8958 156.11 18.2871 158.531 18.2871ZM173.526 37.4189V0.742463L180.924 0.096847V24.6787L188.268 12.9662H196.085L188.429 25.0984L196.381 37.4189H188.542L180.924 25.4589V37.4189H173.526Z" fill="#1877F2"/>
</svg>
