<svg width="70" height="49" viewBox="0 0 70 49" fill="none" xmlns="http://www.w3.org/2000/svg">
<path d="M39.7718 11.5006C40.988 10.2815 41.7405 8.59912 41.7405 6.74039C41.7405 3.01793 38.7225 0 35.0001 0C32.6467 0 30.5776 1.20817 29.3719 3.03592C29.0516 3.3567 2.21948 36.4281 1.96865 36.8083C0.752487 38.0275 0 39.7103 0 41.5681C0 45.291 3.01793 48.309 6.74039 48.309C9.09378 48.309 11.1629 47.1013 12.3685 45.273C12.6888 44.9522 39.521 11.8804 39.7718 11.5006Z" fill="white"/>
<path d="M55.2972 27.1946C56.5169 25.9744 57.2709 24.29 57.2709 22.4288C57.2709 18.7064 54.2529 15.6884 50.5305 15.6884C48.1761 15.6884 46.106 16.8976 44.9003 18.7269C44.5776 19.0501 30.4847 36.4218 30.2324 36.8045C29.0127 38.0247 28.2587 39.709 28.2587 41.5697C28.2587 45.2927 31.2766 48.3106 34.9991 48.3106C37.3535 48.3106 39.4236 47.1015 40.6288 45.2722C40.9515 44.9494 55.0449 27.5773 55.2972 27.1946Z" fill="white"/>
<path d="M70 6.74039C70 10.4633 66.982 13.4808 63.2596 13.4808C59.5366 13.4808 56.5192 10.4633 56.5192 6.74039C56.5192 3.01793 59.5366 0 63.2596 0C66.982 0 70 3.01793 70 6.74039Z" fill="white"/>
<path d="M13.4808 6.74039C13.4808 10.4633 10.4628 13.4808 6.74039 13.4808C3.01793 13.4808 0 10.4633 0 6.74039C0 3.01793 3.01793 0 6.74039 0C10.4628 0 13.4808 3.01793 13.4808 6.74039Z" fill="white"/>
</svg>
