<?xml version="1.0" encoding="UTF-8" standalone="no"?>
<!-- Created with Inkscape (http://www.inkscape.org/) -->

<svg
   width="1080"
   height="1080"
   viewBox="0 0 285.74999 285.75"
   version="1.1"
   id="svg1"
   xml:space="preserve"
   sodipodi:docname="logo-branco-fundo-transparente.svg"
   inkscape:version="1.3.2 (091e20e, 2023-11-25)"
   inkscape:export-filename="../../Logos em PNG/Branco/logo-branco-fundo-transparente.png"
   inkscape:export-xdpi="96"
   inkscape:export-ydpi="96"
   xmlns:inkscape="http://www.inkscape.org/namespaces/inkscape"
   xmlns:sodipodi="http://sodipodi.sourceforge.net/DTD/sodipodi-0.dtd"
   xmlns="http://www.w3.org/2000/svg"
   xmlns:svg="http://www.w3.org/2000/svg"><sodipodi:namedview
     id="namedview1"
     pagecolor="#ffffff"
     bordercolor="#000000"
     borderopacity="0"
     inkscape:showpageshadow="2"
     inkscape:pageopacity="0.0"
     inkscape:pagecheckerboard="true"
     inkscape:deskcolor="#d1d1d1"
     inkscape:document-units="mm"
     inkscape:zoom="0.54536188"
     inkscape:cx="489.58317"
     inkscape:cy="529.00654"
     inkscape:window-width="1472"
     inkscape:window-height="818"
     inkscape:window-x="0"
     inkscape:window-y="37"
     inkscape:window-maximized="0"
     inkscape:current-layer="g1"
     labelstyle="default" /><defs
     id="defs1" /><g
     inkscape:groupmode="layer"
     id="layer4"
     inkscape:label="cor" /><g
     inkscape:groupmode="layer"
     id="layer3"
     inkscape:label="Camada 2"><g
       id="g1"
       transform="matrix(2.2961993,0,0,2.3000934,-111.54706,-136.0175)"
       style="stroke:none;stroke-width:0.951637;stroke-dasharray:none"><g
         id="g2"
         style="fill:#fefefe;fill-opacity:1"><path
           style="fill:#fefefe;fill-opacity:1;stroke:none;stroke-width:0.951637;stroke-dasharray:none;stroke-opacity:1"
           d="M 82.377021,156.51779 C 52.892713,128.63716 66.417213,79.283665 108.47746,76.856495 c 13.85315,-0.730961 49.72526,8.42659 46.32133,48.459485 C 155.99785,87.061696 117.69776,73.58205 96.113604,81.820167 60.735052,96.3324 65.131266,139.11844 83.728652,153.04552 c -0.822055,-1.65177 -1.010615,-5.17952 -0.2892,-5.55376 1.371748,1.63952 2.721328,3.67913 6.408463,4.82169 0.83805,-0.77461 0.734934,1.59337 0.05228,-3.6e-4 -8.646563,-17.43049 -5.42074,-28.9276 -4.041958,-29.0762 19.096983,28.29631 49.013723,16.79968 58.299283,28.59973 -24.43406,21.69675 -51.636533,13.5865 -61.780502,4.68117 z"
           id="path19"
           sodipodi:nodetypes="ccccccccccc" /><path
           style="fill:#fefefe;fill-opacity:1;stroke:none;stroke-width:0.951637;stroke-dasharray:none;stroke-opacity:1"
           d="m 144.45648,150.97803 c -6.24742,-10.79913 -31.58098,-3.10664 -50.954577,-20.56355 -2.585275,-8.41946 -0.164723,-23.36424 2.111714,-22.92803 3.825449,9.84376 9.996653,17.22478 20.041293,24.70211 8.10334,5.20789 17.00885,6.11158 24.81131,12.56245 4.3556,3.46458 4.10117,4.72757 3.99026,6.22702 z"
           id="path20"
           sodipodi:nodetypes="cccccc" /></g></g></g></svg>
