<svg width="211" height="45" viewBox="0 0 211 45" fill="none" xmlns="http://www.w3.org/2000/svg">
<path d="M210.85 20.307V16.5894H206.245V10.8187L206.078 10.8742L201.75 12.2059H201.639V16.5894H194.814V14.1479C194.814 13.0382 195.092 12.1504 195.591 11.5955C196.09 11.0407 196.812 10.7078 197.7 10.7078C198.365 10.7078 199.031 10.8742 199.697 11.1517L199.864 11.2071V7.32304L199.808 7.26756C199.198 7.04561 198.31 6.93463 197.256 6.93463C195.924 6.93463 194.703 7.21207 193.649 7.82243C192.595 8.3773 191.762 9.2096 191.152 10.2639C190.542 11.3181 190.264 12.5388 190.264 13.8705V16.5339H187.046V20.2515H190.264V35.8989H194.87V20.2515H201.695V30.2392C201.695 34.3452 203.637 36.3983 207.41 36.3983C208.02 36.3983 208.686 36.3428 209.352 36.1763C210.018 36.0099 210.517 35.8989 210.794 35.7324L210.85 35.6769V31.9593L210.684 32.0703C210.406 32.2367 210.129 32.3477 209.74 32.4587C209.352 32.5696 209.074 32.6251 208.852 32.6251C207.965 32.6251 207.299 32.4032 206.91 31.9038C206.522 31.4044 206.3 30.5721 206.3 29.4069V20.307H210.85ZM176.781 32.6251C175.116 32.6251 173.785 32.0703 172.841 30.9605C171.898 29.8508 171.454 28.2971 171.454 26.2996C171.454 24.2466 171.954 22.6375 172.841 21.5277C173.785 20.418 175.061 19.8631 176.725 19.8631C178.335 19.8631 179.611 20.418 180.499 21.4722C181.386 22.5265 181.886 24.1356 181.886 26.1886C181.886 28.2972 181.442 29.9063 180.61 30.9605C179.722 32.1257 178.446 32.6251 176.781 32.6251ZM176.947 16.1455C173.785 16.1455 171.232 17.0888 169.401 18.9198C167.57 20.7509 166.682 23.3033 166.682 26.5216C166.682 29.5733 167.57 31.9593 169.346 33.7349C171.121 35.5105 173.507 36.3983 176.448 36.3983C179.555 36.3983 181.997 35.455 183.828 33.5684C185.659 31.6819 186.547 29.1849 186.547 26.0777C186.547 23.0259 185.714 20.529 183.994 18.8089C182.33 17.0333 179.999 16.1455 176.947 16.1455ZM159.302 16.1455C157.138 16.1455 155.363 16.7004 153.976 17.8101C152.589 18.9198 151.923 20.3625 151.923 22.0826C151.923 22.9704 152.089 23.8027 152.367 24.4685C152.644 25.1344 153.143 25.7447 153.754 26.2441C154.364 26.7435 155.307 27.2984 156.528 27.7978C157.582 28.2417 158.359 28.5746 158.859 28.9075C159.358 29.1849 159.691 29.4624 159.857 29.7398C160.024 30.0172 160.135 30.4057 160.135 30.8496C160.135 32.1258 159.136 32.7916 157.138 32.7916C156.417 32.7916 155.529 32.6251 154.642 32.3477C153.698 32.0148 152.866 31.6264 152.089 31.016L151.923 30.905V35.344L151.978 35.3995C152.644 35.6769 153.476 35.9544 154.42 36.1763C155.363 36.3983 156.251 36.4538 157.028 36.4538C159.358 36.4538 161.3 35.8989 162.632 34.7891C164.019 33.6794 164.74 32.1812 164.74 30.4056C164.74 29.1294 164.352 27.9642 163.63 27.0764C162.909 26.1886 161.577 25.3563 159.802 24.635C158.359 24.0801 157.471 23.5807 157.083 23.1923C156.695 22.8594 156.528 22.36 156.528 21.6942C156.528 21.1393 156.75 20.6954 157.249 20.307C157.749 19.9186 158.359 19.7521 159.192 19.7521C159.968 19.7521 160.745 19.8631 161.522 20.0851C162.299 20.307 162.965 20.6399 163.575 21.0283L163.741 21.1393V16.9223L163.686 16.8668C163.131 16.6449 162.465 16.4229 161.633 16.3119C160.745 16.2565 159.968 16.1455 159.302 16.1455ZM139.882 32.6251C138.217 32.6251 136.886 32.0703 135.942 30.9605C134.999 29.8508 134.555 28.2971 134.555 26.2996C134.555 24.2466 135.055 22.6375 135.942 21.5277C136.886 20.418 138.162 19.8631 139.827 19.8631C141.436 19.8631 142.712 20.418 143.6 21.4722C144.487 22.5265 144.987 24.1356 144.987 26.1886C144.987 28.2972 144.543 29.9063 143.711 30.9605C142.878 32.1257 141.602 32.6251 139.882 32.6251ZM140.104 16.1455C136.941 16.1455 134.389 17.0888 132.558 18.9198C130.727 20.7509 129.839 23.3033 129.839 26.5216C129.839 29.5733 130.727 31.9593 132.502 33.7349C134.278 35.5105 136.664 36.3983 139.605 36.3983C142.712 36.3983 145.153 35.455 146.984 33.5684C148.815 31.6819 149.703 29.1849 149.703 26.0777C149.703 23.0259 148.871 20.529 147.151 18.8089C145.486 17.0333 143.1 16.1455 140.104 16.1455ZM122.847 19.9741V16.6449H118.298V35.9544H122.847V26.0777C122.847 24.4131 123.236 23.0259 123.957 21.9716C124.679 20.9174 125.677 20.418 126.898 20.418C127.286 20.418 127.786 20.4735 128.285 20.6399C128.785 20.7509 129.118 20.9174 129.339 21.0838L129.506 21.1948V16.5894L129.45 16.5339C129.007 16.3674 128.452 16.2565 127.675 16.2565C126.51 16.2565 125.511 16.6449 124.623 17.3662C123.902 18.032 123.347 18.8643 122.847 19.9741ZM110.196 16.1455C108.088 16.1455 106.257 16.5894 104.648 17.4772C103.039 18.365 101.818 19.6412 100.986 21.2503C100.153 22.8594 99.7094 24.746 99.7094 26.799C99.7094 28.6301 100.098 30.2947 100.93 31.7928C101.762 33.291 102.872 34.4562 104.315 35.233C105.757 36.0098 107.422 36.4538 109.309 36.4538C111.473 36.4538 113.304 36.0098 114.802 35.1775L114.857 35.122V30.9605L114.691 31.127C114.025 31.6264 113.248 32.0148 112.471 32.2922C111.695 32.5697 110.918 32.7361 110.307 32.7361C108.532 32.7361 107.089 32.1812 106.035 31.0715C104.981 29.9618 104.481 28.4081 104.481 26.4661C104.481 24.524 105.036 22.9149 106.146 21.7497C107.256 20.5844 108.643 19.9741 110.418 19.9741C111.917 19.9741 113.359 20.4735 114.746 21.4722L114.913 21.5832V17.1997L114.857 17.1442C114.358 16.8668 113.637 16.5894 112.749 16.4229C111.861 16.2565 110.973 16.1455 110.196 16.1455ZM96.6021 16.6449H92.0522V35.9544H96.6021V16.6449ZM94.3826 8.3773C93.6613 8.3773 92.9955 8.65473 92.4406 9.15411C91.8857 9.6535 91.6083 10.3193 91.6083 11.0407C91.6083 11.762 91.8857 12.4279 92.3851 12.9272C92.94 13.4266 93.5503 13.6486 94.3271 13.6486C95.104 13.6486 95.7698 13.4266 96.2692 12.9272C96.8241 12.4279 97.1015 11.8175 97.1015 11.0407C97.1015 10.3193 96.8241 9.70898 96.3247 9.15411C95.8253 8.65473 95.1595 8.3773 94.3826 8.3773ZM83.0633 15.2022V35.9544H87.7242V8.98765H81.2877L73.1311 29.0185L65.1964 8.98765H58.538V35.9544H62.9215V15.2022H63.0879L71.4665 35.9544H74.7402L82.9523 15.2022H83.0633Z" fill="#706D6E"/>
<path d="M21.3625 21.3625H0V0H21.3625V21.3625Z" fill="#F1511B"/>
<path d="M44.999 21.3625H23.6364V0H44.999V21.3625Z" fill="#80CC28"/>
<path d="M21.3625 45H0V23.582H21.3625V45Z" fill="#00ADEF"/>
<path d="M44.999 45H23.6364V23.582H44.999V45Z" fill="#FBBC09"/>
</svg>
