<svg width="106" height="141" viewBox="0 0 106 141" fill="none" xmlns="http://www.w3.org/2000/svg">
<path d="M9.59071 50.3931C-2.5954 44.5167 -4.88914 31.3258 12.8882 26.3083C0.414681 10.9684 13.0308 2.07979 21.4905 0.358688C29.9491 -1.36136 46.7227 2.9398 62.9226 16.846C79.1236 30.7521 86.1485 31.4695 91.0223 42.3655C95.8972 53.2616 93.6034 61.7203 88.7275 72.759C83.8537 83.7988 83.28 87.2388 92.7423 96.1275C102.205 105.017 109.946 113.906 103.352 130.679C96.7572 147.453 17.9057 141.288 14.1782 129.818C10.4507 118.35 19.3394 76.3428 19.3394 76.3428L9.59071 50.3931Z" fill="#292929"/>
</svg>
