<svg width="16" height="10" viewBox="0 0 16 10" fill="none" xmlns="http://www.w3.org/2000/svg">
<path d="M1.07053 1.52325C1.05876 4.27304 1.55524 6.24177 2.52141 7.25181C4.55754 9.37568 9.0888 7.20471 13.9336 2.09673C8.75176 3.11212 3.54213 2.81576 1.07053 1.52325ZM4.5554 9.14778C3.42767 9.14778 2.48287 8.75936 1.74781 7.99113C0.447807 6.63335 -0.132095 4.11575 0.025189 0.512132C0.0337487 0.30456 0.163196 0.120525 0.354718 0.041348C0.546241 -0.0388989 0.766676 -0.000369143 0.92075 0.139795C1.68684 0.841688 3.93695 1.65912 7.75349 1.65912C10.1352 1.65912 12.7577 1.32531 15.3374 0.692962C15.5685 0.637324 15.8028 0.735742 15.9226 0.934754C16.0435 1.13484 16.0211 1.38951 15.867 1.56498C11.6321 6.38407 7.50956 9.14778 4.5554 9.14778Z" fill="#292929"/>
</svg>
