<svg width="273" height="244" viewBox="0 0 273 244" fill="none" xmlns="http://www.w3.org/2000/svg">
<path d="M127.113 1.05648C123.26 1.05648 119.395 1.22552 115.624 1.55937C56.7778 6.76992 19.968 39.8673 6.21898 99.9312C0.174872 126.332 -5.00187 188.501 17.5708 212.167C41.7325 237.497 60.1258 240.317 99.3898 241.057C112.948 241.313 124.332 241.742 134.376 242.122C146.053 242.562 156.138 242.944 166.427 242.944C166.427 242.944 166.428 242.944 166.429 242.944C174.583 242.944 182.056 242.708 189.949 242.202L192.388 242.049C221.734 240.221 266.08 237.458 270.884 172.351C274.617 121.734 261.104 78.3072 231.806 46.7671C205.216 18.144 166.079 1.05648 127.113 1.05648ZM166.429 244C166.428 244 166.428 244 166.427 244C156.117 244 146.024 243.619 134.336 243.177C124.297 242.799 112.918 242.369 99.3708 242.113C59.793 241.367 41.2444 238.517 16.807 212.895C-6.06257 188.919 -0.896396 126.277 5.18892 99.6957C19.052 39.1341 56.1767 5.76204 115.531 0.507113C119.332 0.171153 123.229 0 127.113 0C166.367 0 205.794 17.2143 232.579 46.0477C253.153 68.1957 276.683 108.1 271.937 172.429C267.066 238.456 222.165 241.252 192.455 243.103L190.017 243.257C182.102 243.763 174.605 244 166.429 244Z" fill="#292929"/>
</svg>
