<svg width="30" height="32" viewBox="0 0 30 32" fill="none" xmlns="http://www.w3.org/2000/svg">
<path d="M24.6795 1.05663C23.8796 1.05663 22.973 1.35037 22.0569 1.9051L3.35352 13.2279C1.84782 14.1388 1.0321 15.3 1.05746 16.4971C1.08282 17.6943 1.94608 18.8207 3.48876 19.6702L22.6476 30.2037C24.4502 31.1938 26.1345 31.1758 27.134 30.1551C27.8346 29.4398 28.1896 28.3018 28.16 26.8637L27.7025 5.00842C27.6528 2.57078 26.4937 1.05663 24.6795 1.05663ZM25.1581 32C24.2051 32 23.1886 31.7073 22.1383 31.1293L2.98053 20.5958C1.09234 19.5582 0.0335886 18.1106 0.000833114 16.5193C-0.032979 14.9291 0.963421 13.4393 2.80618 12.3235L21.5096 1.00063C22.6064 0.337067 23.6725 0 24.6795 0C27.0949 0 28.6968 1.95688 28.7591 4.98623L29.2166 26.8426C29.2525 28.5702 28.7929 29.9713 27.8895 30.8948C27.1805 31.6175 26.237 32 25.1581 32Z" fill="#FDCA81"/>
</svg>
