<svg width="90" height="78" viewBox="0 0 90 78" fill="none" xmlns="http://www.w3.org/2000/svg">
<path d="M0 4.5975C2.44114 5.4592 14.3642 5.45921 23.989 0C25.5684 8.76311 31.4574 34.9064 31.4574 34.9064C39.6457 26.0003 50.9929 15.5149 56.1652 11.0613C61.3365 6.6078 69.2368 2.29822 76.9932 2.58616C84.7507 2.87304 88.7723 2.4422 88.7723 2.4422C88.7723 2.4422 82.5964 13.3596 85.7564 43.6684C88.9163 73.9784 89.922 78 89.922 78L79.2925 76.9954C79.2925 76.9954 81.4468 70.2436 74.983 62.4872C68.5181 54.7287 66.6507 49.8454 65.789 44.0993C58.8943 51.139 40.5074 70.6745 25.1376 70.8184C9.76773 70.9613 4.30852 57.172 2.15426 39.9337C3.78586e-06 22.6964 0 4.5975 0 4.5975Z" fill="#40BDDE"/>
</svg>
