<svg width="23" height="15" viewBox="0 0 23 15" fill="none" xmlns="http://www.w3.org/2000/svg">
<path d="M11.6681 3.73792C9.59259 4.6276 7.63896 6.19842 6.89471 7.68692C6.03284 8.85034 5.83924 10.6222 6.38459 11.9824C6.68079 12.7223 7.31278 13.6494 8.64195 13.8708C10.9228 14.3188 11.8906 11.9 12.206 10.8371C12.884 8.55519 12.6926 5.72579 11.6681 3.73792ZM9.20441 15C8.95847 15 8.70716 14.9733 8.45052 14.9219C7.04651 14.6888 5.95475 13.7853 5.39228 12.3802C4.70685 10.6693 4.95173 8.50813 5.9879 7.12657C6.78989 5.50869 8.86113 3.8085 11.0853 2.82044C10.6319 2.2398 10.078 1.78853 9.42573 1.52762C7.9244 0.927731 5.2041 0.809056 3.12213 1.77465C2.03998 2.27616 1.3385 2.98296 1.0423 3.87371C0.948196 4.15387 0.647721 4.3068 0.365421 4.2127C0.0852589 4.1186 -0.0655581 3.81599 0.0274728 3.53583C0.415636 2.37134 1.33097 1.42603 2.67297 0.803688C4.73676 -0.154423 7.81323 -0.270954 9.82248 0.535314C10.7592 0.909576 11.5238 1.57254 12.1162 2.41837C12.5012 2.29112 12.8839 2.18634 13.2625 2.11149C15.5337 1.3512 17.4959 1.39609 19.0272 2.26438C20.675 3.19682 21.8245 5.08098 22.4436 7.86656C22.5067 8.15421 22.3249 8.43973 22.0373 8.50388C21.7475 8.56697 21.4631 8.38626 21.3989 8.09861C20.8482 5.621 19.873 3.97104 18.5011 3.19471C17.2393 2.48041 15.5701 2.46436 13.5363 3.14338C13.2518 3.20005 12.9641 3.27491 12.6754 3.36473C13.7886 5.61351 13.9683 8.66212 13.2304 11.1419C12.4979 13.6088 11.0233 14.9989 9.20441 15Z" fill="#292929"/>
</svg>
