<svg width="78" height="112" viewBox="0 0 78 112" fill="none" xmlns="http://www.w3.org/2000/svg">
<path d="M21.4957 90.5669C25.6808 89.9894 30.1977 88.3962 29.7638 81.4683C29.3309 74.5414 28.177 65.4491 28.177 65.4491C17.3532 65.3055 6.67303 59.6761 1.76687 48.5641C-3.14036 37.4521 3.35366 31.6792 6.96229 20.1333C10.5709 8.58842 17.3532 -0.936734 32.5067 0.0736396C47.6601 1.08295 55.741 8.29915 55.741 8.29915C53.1438 21.8647 50.5455 41.0597 56.1739 42.2147C61.8022 43.3687 63.2465 33.4117 63.2465 33.4117C71.7613 29.2256 80.6802 34.3189 77.245 41.7808C73.0599 50.8731 63.1018 46.2552 63.1018 46.2552C61.0822 51.4506 52.5674 57.2225 52.5674 57.2225C53.866 67.9027 55.1582 85.5693 63.2401 86.5786C59.9208 103.465 58.1957 109.611 58.1957 109.611C58.1957 109.611 29.1873 116.682 18.6518 106.292C19.0846 102.684 21.4957 90.5669 21.4957 90.5669Z" fill="#FEFEFE"/>
</svg>
