<svg width="16" height="18" viewBox="0 0 16 18" fill="none" xmlns="http://www.w3.org/2000/svg">
<path d="M5.37349 1.08206C4.01118 1.08206 2.88366 1.62201 2.11648 2.64455C1.00413 4.12264 0.775829 6.38412 1.48891 8.84905C2.77331 13.2985 6.70874 16.918 10.2601 16.918C11.6213 16.918 12.7466 16.378 13.5149 15.3544C14.6272 13.8742 14.8556 11.6137 14.1425 9.15097C12.8613 4.70154 8.92697 1.08206 5.37349 1.08206ZM10.2601 18C6.25969 18 1.85789 14.03 0.449049 9.14879C-0.359248 6.35491 -0.0670957 3.74824 1.25085 1.99531C2.21821 0.70766 3.68223 0 5.37349 0C9.37602 0 13.7768 3.97115 15.1824 8.85123C15.9906 11.6429 15.6985 14.2507 14.3795 16.0047C13.4121 17.2913 11.9502 18 10.2601 18Z" fill="#292929"/>
</svg>
