<svg width="51" height="44" viewBox="0 0 51 44" fill="none" xmlns="http://www.w3.org/2000/svg">
<path d="M1.46489 43.9778C1.23292 43.9778 1.01897 43.8232 0.954354 43.588C0.87809 43.3052 1.0444 43.0139 1.32616 42.9377C2.10892 42.6528 4.95717 38.0398 7.03643 34.6715C9.27139 31.0511 11.3824 27.6319 12.6408 26.3746C15.0092 24.0051 36.8398 9.10287 46.107 2.8312L0.725558 20.8423C0.454396 20.9492 0.146168 20.8168 0.0370681 20.5457C-0.0699136 20.2735 0.0624882 19.9663 0.33365 19.8582L50.2751 0.0380249C50.5367 -0.0678976 50.8375 0.0549748 50.954 0.313426C51.0695 0.572936 50.9604 0.876934 50.7072 1.00404C49.165 1.82176 15.8672 24.6459 13.3897 27.1235C12.2192 28.2939 10.0425 31.819 7.93784 35.2276C4.32271 41.084 2.63007 43.6791 1.6058 43.9588C1.55813 43.9715 1.5115 43.9778 1.46489 43.9778Z" fill="#292929"/>
</svg>
