<svg width="67" height="55" viewBox="0 0 67 55" fill="none" xmlns="http://www.w3.org/2000/svg">
<path d="M44.6693 44.6086C44.8969 44.6086 45.098 44.7526 45.1711 44.9696C45.3277 45.4343 45.4801 45.8989 45.6304 46.3573C46.9377 50.335 48.0861 53.755 50.347 53.5803C52.3592 53.3824 53.2187 47.2157 53.5436 44.8934C53.5786 44.6446 53.7839 44.4541 54.0348 44.4393C60.103 44.0625 65.0324 38.8516 65.2568 32.5748L65.9321 13.9137C66.0602 10.3869 64.7889 6.96904 62.4444 4.53877C60.2798 2.29479 57.3986 1.05848 54.329 1.05848H12.8366C9.62513 1.05848 6.64128 2.34666 4.43435 4.6859C2.09511 7.16804 0.87256 10.6367 1.08108 14.2016L2.1999 33.2649C2.58096 39.7693 8.07977 45.0617 14.4592 45.0617L14.6392 45.0606L44.6609 44.6086C44.664 44.6086 44.6662 44.6086 44.6693 44.6086ZM50.1777 54.6452C47.2372 54.6452 46.0263 50.9564 44.6249 46.6875C44.5148 46.3509 44.4037 46.0122 44.2904 45.6724L14.4592 46.1202C7.41187 46.1202 1.56374 40.5007 1.14352 33.3274L0.024699 14.2641C-0.200758 10.4091 1.12555 6.65256 3.66484 3.95978C6.07289 1.40567 9.32981 0 12.8366 0H54.329C57.6876 0 60.8408 1.35062 63.2065 3.80418C65.749 6.4398 67.1282 10.1392 66.9906 13.9518L66.3153 32.6129C66.0771 39.2781 60.9382 44.8373 54.5323 45.4607C53.8591 50.136 52.8736 54.3954 50.4381 54.6346C50.3428 54.642 50.2592 54.6452 50.1777 54.6452Z" fill="#292929"/>
</svg>
