<svg width="25" height="23" viewBox="0 0 25 23" fill="none" xmlns="http://www.w3.org/2000/svg">
<path d="M13.1745 7.01442C12.8206 7.01442 12.4494 7.09365 12.0772 7.25211C9.86953 8.19312 9.03815 10.0241 8.72882 11.3939C8.46507 12.5693 8.47701 13.8761 8.72448 15.121C9.22483 15.1123 9.73061 15.0516 10.2353 14.9365C12.6763 14.345 14.9479 12.4337 15.3995 10.5875C15.6426 9.28937 15.3181 8.11718 14.5257 7.48115C14.1404 7.17182 13.6748 7.01442 13.1745 7.01442ZM16.7638 22.7468C14.1014 22.7468 11.6202 21.6918 9.7306 19.7414C8.89161 18.795 8.25668 17.5381 7.87246 16.1771C6.468 16.0544 5.11889 15.5715 3.92825 14.7466C1.85195 13.3096 0.450741 10.9575 0.0849732 8.29624C-0.32855 4.99673 0.808917 2.9671 2.59108 0.245007C2.75606 -0.00571211 3.09252 -0.0751558 3.34323 0.0887342C3.59395 0.253709 3.66341 0.58908 3.49952 0.840884C1.80527 3.42622 0.786123 5.16281 1.16166 8.15407C1.4851 10.5093 2.71915 12.5899 4.54582 13.8544C5.48032 14.5013 6.52552 14.9061 7.61848 15.0559C7.38947 13.7415 7.39381 12.3848 7.67058 11.1562C8.19373 8.83676 9.56997 7.14034 11.6517 6.25359C12.9118 5.71634 14.2403 5.8596 15.2052 6.63563C16.3144 7.52563 16.7844 9.08858 16.4609 10.8165C15.9041 13.0892 13.3383 15.3012 10.4838 15.9936C9.98891 16.1054 9.49183 16.1738 9.00016 16.1977C9.34205 17.2711 9.86084 18.2534 10.5262 19.0044C12.2997 20.8333 14.6918 21.77 17.224 21.6506C19.895 21.5138 22.3762 20.2342 24.0314 18.1372C24.217 17.9028 24.5588 17.8626 24.7933 18.0472C25.0288 18.2328 25.069 18.5746 24.8834 18.8091C23.0339 21.1524 20.263 22.5818 17.2793 22.7337C17.1067 22.7424 16.9342 22.7468 16.7638 22.7468Z" fill="#292929"/>
</svg>
