<svg width="58" height="28" viewBox="0 0 58 28" fill="none" xmlns="http://www.w3.org/2000/svg">
<path d="M28.5543 27.6189C28.5146 27.6189 28.4738 27.6178 28.434 27.6178C24.1522 27.5533 20.6695 23.9504 18.1139 20.818C13.3927 15.0257 2.76966 3.15229 0.188292 0.944755C-0.0372955 0.752469 -0.0641433 0.413011 0.129218 0.187423C0.32043 -0.0381642 0.659896 -0.06288 0.885484 0.128332C3.50123 2.3638 14.2016 14.3189 18.9475 20.138C21.3549 23.0899 24.6109 26.4856 28.4501 26.5436C31.1969 26.5608 34.0673 24.8946 36.9891 21.5237C45.0319 12.2445 56.9676 0.555876 57.0869 0.438786C57.3006 0.23146 57.6412 0.235752 57.8464 0.447375C58.0548 0.658997 58.0505 0.999528 57.8378 1.20685C57.7185 1.32394 45.815 12.9815 37.8013 22.2263C34.6592 25.8529 31.632 27.6189 28.5543 27.6189Z" fill="#292929"/>
</svg>
