<svg width="82" height="22" viewBox="0 0 82 22" fill="none" xmlns="http://www.w3.org/2000/svg">
<path d="M7.85931 19.5216C7.9146 19.5216 7.9699 19.5301 8.022 19.5482C8.16235 19.5929 8.27822 19.6928 8.33989 19.8257C8.70989 20.6125 9.66999 20.7773 10.4111 20.7773C12.4482 20.7773 15.2307 19.6024 17.1786 17.9193C21.0201 14.601 25.1379 13.7653 29.678 15.3676C35.1122 17.2857 42.4485 19.5397 51.0235 19.9555C52.5248 20.0278 54.478 20.0639 56.8288 20.0639C65.7833 20.0639 78.1775 19.5301 80.574 19.4228C80.9834 17.325 82.4719 7.09774 74.134 1.11491C65.7429 3.62308 50.3239 7.82711 42.7377 7.31038C39.3556 7.08072 35.9373 6.29074 32.6327 5.52733C28.9305 4.67249 25.4325 3.86444 22.2077 3.86444C20.9031 3.86444 19.7442 3.99627 18.6639 4.26633C11.6987 6.00578 0.365619 14.5701 1.08968 17.5461C1.29063 18.3712 1.77867 18.7572 2.62607 18.7572C3.40861 18.7572 4.1699 18.418 4.17734 18.4137C4.44315 18.2979 4.75467 18.4105 4.87694 18.6732C5.25545 19.4738 5.786 19.8651 6.49837 19.8651C7.09059 19.8651 7.59565 19.5908 7.60096 19.5886C7.68071 19.544 7.76893 19.5216 7.85931 19.5216ZM10.4111 21.8405C8.89808 21.8405 8.08366 21.3015 7.64561 20.722C7.35322 20.8252 6.94705 20.9283 6.49837 20.9283C5.79132 20.9283 4.84293 20.6774 4.1497 19.5588C3.77331 19.6801 3.21404 19.8204 2.62607 19.8204C1.28745 19.8204 0.374141 19.1017 0.0562335 17.7971C-0.948524 13.6622 11.7582 4.89576 18.4066 3.23392C19.5719 2.94366 20.8148 2.8012 22.2077 2.8012C25.5547 2.8012 29.1091 3.62202 32.8719 4.49174C36.1371 5.24664 39.5129 6.02598 42.81 6.24926C50.2994 6.76599 65.8205 2.49817 74.0766 0.0218889C74.2318 -0.0238303 74.4009 0.00275091 74.5327 0.0952524C84.6728 7.14876 81.5564 19.9384 81.5224 20.066C81.4661 20.2935 81.2662 20.4552 81.0323 20.4658C80.8909 20.4732 66.7573 21.1271 56.8298 21.1271C56.8288 21.1271 56.8298 21.1271 56.8288 21.1271C54.4599 21.1271 52.4897 21.0899 50.9714 21.0165C42.2592 20.5944 34.8262 18.3127 29.325 16.3702C25.1496 14.8987 21.423 15.6578 17.8739 18.7242C15.7485 20.5593 12.68 21.8405 10.4111 21.8405Z" fill="#292929"/>
</svg>
