<svg width="41" height="21" viewBox="0 0 41 21" fill="none" xmlns="http://www.w3.org/2000/svg">
<path d="M12.6109 6.08396C12.5915 6.12064 12.572 6.15732 12.5526 6.19401C11.232 8.7565 11.7434 11.4107 13.9908 13.6679C15.6298 15.3132 17.177 15.9142 18.2322 15.3197C19.337 14.6972 19.8225 12.8306 19.3629 10.978C19.0899 9.8786 17.8028 6.31917 12.6109 6.08396ZM0.539648 20.6421C0.242938 20.6421 0.00125431 20.4015 0.000175368 20.1048C-0.0203246 15.501 1.75778 10.8906 4.63964 8.07352C6.67669 6.08287 9.21327 5.02227 12.0002 4.99422C14.184 1.56749 18.7436 -0.541841 22.7465 0.121709C25.0932 0.511208 27.1486 1.79515 29.136 3.03701C32.8119 5.33193 35.9862 7.3161 40.0689 3.00788C40.2739 2.79209 40.6149 2.78238 40.8317 2.98738C41.0475 3.19238 41.0573 3.53441 40.8523 3.7502C36.1642 8.69931 32.3016 6.28679 28.5641 3.95088C26.6674 2.7662 24.7048 1.53944 22.5695 1.18555C19.2345 0.635287 15.3438 2.31844 13.2755 5.05033C17.5848 5.47759 19.7848 8.19869 20.4095 10.7169C20.9921 13.0626 20.2984 15.3931 18.763 16.2595C17.8761 16.7601 15.9761 17.1884 13.227 14.4296C10.7724 11.9653 10.1196 8.9507 11.4025 6.09582C9.12048 6.25119 7.10286 7.17369 5.39381 8.84497C2.71371 11.4657 1.06078 15.7783 1.07912 20.1005C1.0802 20.3983 0.839593 20.6411 0.541804 20.6421C0.540725 20.6421 0.539648 20.6421 0.539648 20.6421Z" fill="#292929"/>
</svg>
