<svg width="12" height="29" viewBox="0 0 12 29" fill="none" xmlns="http://www.w3.org/2000/svg">
<path d="M9.25034 29C9.15849 29 9.06557 28.977 8.98028 28.9289C5.84974 27.1455 4.20845 25.3971 3.96243 23.5852C3.65845 21.3349 5.48234 19.5067 7.24607 17.7375C7.5916 17.392 7.93494 17.0475 8.2586 16.7031C11.1464 13.6283 10.8402 8.02441 9.33346 4.11752C8.68833 2.44346 7.59705 1.45169 6.09356 1.17068C4.10786 0.806558 1.96579 1.78847 0.951076 2.90488C0.748788 3.12904 0.403265 3.14544 0.179109 2.94206C-0.0450481 2.73977 -0.0603527 2.39315 0.141935 2.17009C1.38628 0.801092 3.89682 -0.344844 6.29475 0.0958151C7.60142 0.339654 9.36844 1.16739 10.3547 3.72497C12.0343 8.07908 12.2847 14.0132 9.05463 17.4521C8.7255 17.8031 8.37339 18.1552 8.02021 18.5095C6.44455 20.0906 4.81531 21.7253 5.04603 23.4387C5.24066 24.87 6.74526 26.3965 9.52043 27.9787C9.78395 28.1274 9.87469 28.462 9.72598 28.7234C9.62429 28.9005 9.4406 29 9.25034 29Z" fill="#292929"/>
</svg>
