<svg width="16" height="16" viewBox="0 0 16 16" fill="none" xmlns="http://www.w3.org/2000/svg">
<path d="M7.86144 1.07309C5.71526 1.07309 3.6871 1.99703 2.4348 3.54336C1.19645 5.07359 0.794061 7.06847 1.27159 9.31123C1.9251 12.3824 4.4361 14.3677 7.66718 14.3677C8.60614 14.3677 9.55158 14.197 10.4766 13.8612C12.0626 13.2838 13.5434 11.8062 14.3407 10.0034C15.0189 8.46993 15.1113 6.93969 14.6015 5.69169C13.3793 2.80185 10.8586 1.07309 7.86144 1.07309ZM7.66718 15.4407C3.90921 15.4407 0.98614 13.1218 0.221025 9.53443C-0.470047 6.28832 0.59018 4.11746 1.60103 2.86838C3.054 1.07202 5.3944 0 7.86144 0C11.3039 0 14.1938 1.97342 15.5931 5.27962C16.2176 6.80555 16.12 8.63519 15.3227 10.438C14.4105 12.4983 12.6936 14.196 10.8436 14.8688C9.80051 15.2487 8.73169 15.4407 7.66718 15.4407Z" fill="#FAAD3A"/>
</svg>
