<svg width="68" height="93" viewBox="0 0 68 93" fill="none" xmlns="http://www.w3.org/2000/svg">
<path d="M25.5058 67.2971L26.5146 55.1926L29.8291 66.4327L25.5058 67.2971ZM66.1438 61.9649C59.8026 44.9614 54.327 26.5157 49.1392 18.1568C43.9514 9.79898 37.7547 2.01777 26.2268 0.864453C17.869 0.287794 10.3745 0 10.3745 0C7.63673 7.20559 -1.15334 42.0791 3.45781 71.3326C1.44004 71.3326 0 72.4849 0 72.4849C4.61009 76.2327 7.2045 83.005 6.05224 92.0839C26.0824 93.6684 47.2659 90.4983 54.1826 88.7684C61.1004 87.0405 72.4849 78.9705 66.1438 61.9649Z" fill="#40BDDE"/>
</svg>
