<svg width="57" height="59" viewBox="0 0 57 59" fill="none" xmlns="http://www.w3.org/2000/svg">
<path d="M32.6918 57.0116C35.8678 57.6307 38.786 57.9434 41.3714 57.9434C53.3929 57.9434 55.0569 51.1974 55.207 50.4229C54.9597 49.0314 51.8915 31.9364 48.2168 20.9123C45.6071 13.0843 40.2324 12.0806 35.8425 12.0806C33.5212 12.0806 31.1176 12.4039 28.7931 12.7166C28.1846 12.7991 27.5823 12.8794 26.9906 12.9533C26.0334 13.0738 25.1417 13.134 24.3387 13.134C18.1632 13.134 17.2154 9.47831 16.3787 6.25477C15.675 3.54049 13.4467 1.43583 11.9992 1.43583C11.4614 1.43583 11.06 1.72956 10.7715 2.33391C10.6965 2.49239 10.5465 2.60335 10.3732 2.62871C10.1967 2.65618 10.0245 2.59384 9.90514 2.46388C9.10956 1.5954 8.10054 1.05655 7.27114 1.05655C6.3699 1.05655 5.72541 1.70103 5.35456 2.97101C5.31336 3.11047 5.21723 3.22672 5.08833 3.29328C4.95943 3.35984 4.80834 3.36827 4.6731 3.32178C3.63662 2.9615 2.47545 3.4359 1.80137 4.52098C1.13574 5.59127 -0.0338443 8.84334 3.45701 15.9244C5.74127 20.5542 9.38744 22.9008 14.2972 22.9008C16.0046 22.9008 17.4415 22.6145 18.2995 22.4433C18.7062 22.3619 18.9513 22.3123 19.1257 22.3123C19.1817 22.3123 19.2968 22.3281 19.3507 22.3461C19.5472 22.3366 19.7638 22.326 20.0343 22.3112C20.5013 22.2869 21.1183 22.2552 21.8146 22.2552C26.5163 22.2552 29.277 23.7629 30.0208 26.735C31.4578 32.4848 32.4076 50.8445 32.6918 57.0116ZM41.3714 59C38.6064 59 35.4801 58.6524 32.079 57.9667C31.8413 57.9181 31.667 57.7152 31.6553 57.4722C31.3975 51.7848 30.4424 32.7806 28.996 26.9917C28.3842 24.5501 25.969 23.3118 21.8146 23.3118C21.1395 23.3118 20.5415 23.3424 20.0893 23.3667C19.5652 23.3931 19.2757 23.4047 19.0982 23.3709C18.9841 23.3794 18.7823 23.4248 18.5065 23.4787C17.6095 23.6583 16.1092 23.9573 14.2972 23.9573C9.02716 23.9573 4.95097 21.3413 2.51034 16.3903C-1.08194 9.10748 -0.0380624 5.47821 0.903326 3.96417C1.73378 2.62869 3.13158 1.95145 4.50298 2.19023C5.23095 0.297946 6.52733 0 7.27114 0C8.22732 0 9.28493 0.464871 10.1946 1.26891C10.6542 0.690974 11.2765 0.379279 11.9992 0.379279C14.1018 0.379279 16.6269 3.00061 17.4014 5.98854C18.2487 9.2554 18.9809 12.0775 24.3387 12.0775C25.0973 12.0775 25.9457 12.0204 26.8596 11.9052C27.4481 11.8323 28.0472 11.752 28.6526 11.6707C31.0108 11.3526 33.4494 11.0241 35.8425 11.0241C40.2166 11.0241 46.3646 12.0151 49.2195 20.5774C53.059 32.0949 56.2329 50.1493 56.2635 50.331C56.273 50.3838 56.2741 50.4387 56.2667 50.4926C56.2551 50.5771 54.9735 59 41.3714 59Z" fill="#292929"/>
</svg>
