<svg width="12" height="14" viewBox="0 0 12 14" fill="none" xmlns="http://www.w3.org/2000/svg">
<path d="M2.319 1.07347C2.01199 1.07347 1.72324 1.1733 1.43662 1.37833C1.03729 1.6628 0.850488 3.19679 1.53536 5.33514C2.62064 8.72622 5.39772 12.3503 9.93205 12.3503H9.9331C10.1328 12.3503 10.3367 12.3427 10.5418 12.3298C8.38088 8.91729 6.33698 4.58907 6.31552 4.54291C5.60488 3.56283 3.82723 1.07347 2.319 1.07347ZM9.9331 13.4237H9.93205C4.81483 13.4237 1.65881 9.24255 0.512343 5.66254C-0.0823584 3.80651 -0.359314 1.34184 0.812912 0.504531C1.28094 0.169609 1.78871 0 2.319 0C4.12994 0 5.75303 1.92365 7.23763 4.00188C7.31063 4.13499 9.62823 9.04396 11.9094 12.4651C12.0113 12.6165 12.0285 12.8097 11.9545 12.9771C11.8815 13.1446 11.7279 13.2638 11.5476 13.2927C11.0023 13.3797 10.4591 13.4237 9.9331 13.4237Z" fill="#292929"/>
</svg>
