<svg width="271" height="237" viewBox="0 0 271 237" fill="none" xmlns="http://www.w3.org/2000/svg">
<path d="M153.122 1.05657C135.147 1.05657 114.836 3.41695 92.7547 8.07113C46.0755 17.912 -1.31275 36.7422 1.14377 101.795C3.63939 167.896 28.0293 207.248 75.708 222.103C97.5948 228.922 135.25 235.803 170.038 235.804C170.043 235.804 170.047 235.804 170.05 235.804C201.417 235.804 241.568 230.304 254.75 204.101C268.019 177.721 270.312 147.336 269.899 126.491C269.424 102.568 265.006 78.2802 258.37 63.1078C250.945 46.1372 231.226 1.05657 153.122 1.05657ZM170.05 236.861C170.045 236.861 170.044 236.861 170.038 236.861C132.749 236.86 95.749 229.453 75.3942 223.112C27.2347 208.108 2.60184 168.438 0.0872045 101.835C-1.0803 70.881 9.48011 46.9719 31.4789 30.7715C49.6889 17.3605 72.5626 11.2482 92.536 7.03781C114.689 2.36778 135.073 0 153.122 0C185.668 0 211.723 7.68232 230.565 22.8314C246.068 35.2968 254.085 50.6773 259.338 62.6842C266.027 77.9759 270.478 102.417 270.956 126.47C271.371 147.435 269.061 178.002 255.692 204.575C242.271 231.257 201.713 236.861 170.05 236.861Z" fill="#292929"/>
</svg>
