<svg width="31" height="32" viewBox="0 0 31 32" fill="none" xmlns="http://www.w3.org/2000/svg">
<path d="M4.09998 1.05659C3.16775 1.05659 2.39515 1.37691 1.86837 1.9835C1.18623 2.771 0.92656 4.02673 1.13833 5.52298L4.22449 27.325C4.54481 29.5853 5.71222 30.9358 7.34788 30.9358C8.25244 30.9358 9.2549 30.525 10.2457 29.7482L27.5824 16.1723C28.9775 15.0794 29.6543 13.8194 29.4841 12.6254C29.3149 11.4314 28.3156 10.4087 26.6693 9.7457L6.24644 1.52165C5.48129 1.21303 4.75977 1.05659 4.09998 1.05659ZM7.34788 32C5.16629 32 3.56682 30.2654 3.17094 27.4751L0.0847969 5.67198C-0.174865 3.84051 0.1646 2.32404 1.0649 1.28645C2.2685 -0.100184 4.35113 -0.389644 6.64446 0.534072L27.0673 8.75919C29.0807 9.56904 30.3131 10.8907 30.5387 12.4764C30.7632 14.062 29.947 15.6732 28.2379 17.0109L10.9012 30.5857C9.72209 31.5105 8.49295 32 7.34788 32Z" fill="#FAAD3A"/>
</svg>
