<svg width="56" height="58" viewBox="0 0 56 58" fill="none" xmlns="http://www.w3.org/2000/svg">
<path d="M31.681 56.9755C31.2992 48.5551 30.3421 31.7175 29.0032 26.3599C27.6622 21.0022 19.2418 22.5304 18.6686 22.3411C18.0954 22.1497 7.6191 26.1198 2.45287 15.6446C-2.71443 5.16721 1.44818 1.29226 4.31843 2.29695C5.32312 -1.1465 8.19335 -0.141814 9.77124 1.57991C11.2074 -1.43417 15.3679 1.72482 16.3726 5.5987C17.3773 9.47364 18.382 12.9171 26.4174 11.9124C34.455 10.9077 44.356 8.61172 48.2309 20.2355C52.1058 31.8603 55.2637 49.9416 55.2637 49.9416C55.2637 49.9416 53.7334 61.4247 31.681 56.9755Z" fill="#FEFEFE"/>
</svg>
