<svg width="81" height="21" viewBox="0 0 81 21" fill="none" xmlns="http://www.w3.org/2000/svg">
<path d="M73.7362 0C69.4055 1.29888 50.7808 6.82952 42.2641 6.25188C33.7475 5.67424 24.9425 1.48718 18.013 3.22009C11.0846 4.95193 -0.800023 13.6856 0.0424945 17.1493C0.691403 19.8204 3.8668 18.3769 3.8668 18.3769C5.02207 20.831 7.33154 19.5311 7.33154 19.5311C8.48681 21.9863 13.8281 20.5427 17.0035 17.7992C20.1789 15.0568 24.0755 13.6133 28.9849 15.3462C33.8921 17.078 41.5418 19.5311 50.4914 19.9651C59.4421 20.3981 80.5178 19.4141 80.5178 19.4141C80.5178 19.4141 83.6954 6.92843 73.7362 0Z" fill="#FEFEFE"/>
</svg>
