<svg width="39" height="39" viewBox="0 0 39 39" fill="none" xmlns="http://www.w3.org/2000/svg">
<path d="M22.0485 1.08356C21.0473 1.08356 20.0829 1.37939 19.2583 1.93959L3.26707 12.8023C2.16942 13.5478 1.42612 14.6823 1.17474 15.9977C0.92335 17.3121 1.19639 18.6416 1.94297 19.7393L12.8035 35.7284C13.7311 37.0958 15.2805 37.9117 16.9481 37.9117C17.9504 37.9117 18.917 37.6149 19.7427 37.0536L35.7295 26.1952C38.0083 24.6478 38.6032 21.5348 37.0569 19.255L26.1952 3.26805C25.2677 1.90059 23.7161 1.08356 22.0485 1.08356ZM16.9481 38.9953C14.9208 38.9953 13.0365 38.0017 11.9063 36.3384L1.04465 20.3493C0.137705 19.0111 -0.194948 17.3934 0.110617 15.794C0.415098 14.1947 1.31989 12.8142 2.65809 11.9051L18.6493 1.04239C19.6538 0.360833 20.8295 0 22.0485 0C24.0758 0 25.9623 0.993639 27.0936 2.65908L37.9541 18.6471C39.8341 21.4199 39.1102 25.2081 36.3396 27.0924L20.3527 37.9508C19.345 38.6345 18.1682 38.9953 16.9481 38.9953Z" fill="#40BDDE"/>
</svg>
