<svg width="19" height="12" viewBox="0 0 19 12" fill="none" xmlns="http://www.w3.org/2000/svg">
<path d="M2.7713 1.067C2.1407 1.067 1.71284 1.33588 1.42475 1.91206C0.953133 2.85316 0.944579 3.88067 1.39912 4.96475C2.25913 7.01553 4.64494 8.88918 7.62615 9.85375C8.64087 10.112 9.75483 10.2485 10.9072 10.2485C13.3293 10.2485 15.4814 9.64785 16.8141 9.1677C15.4185 8.70569 13.261 7.77737 11.0385 5.99974C8.39655 3.88494 4.87223 1.067 2.7713 1.067ZM10.9072 11.3155C9.6652 11.3155 8.46269 11.1683 7.32954 10.8781C4.0293 9.8111 1.39272 7.7059 0.415349 5.3777C-0.156565 4.01301 -0.137332 2.65043 0.469793 1.43405C0.939274 0.495083 1.73524 0 2.7713 0C5.24674 0 8.78921 2.83397 11.636 5.11095C15.1624 7.93104 18.5213 8.52642 18.5555 8.53176C18.7806 8.57017 18.9577 8.74942 18.994 8.97669C19.0282 9.20396 18.914 9.42695 18.7102 9.53152C18.5683 9.60514 15.1869 11.3155 10.9072 11.3155Z" fill="#292929"/>
</svg>
