<svg width="79" height="113" viewBox="0 0 79 113" fill="none" xmlns="http://www.w3.org/2000/svg">
<path d="M19.7393 106.53C23.4765 110.068 29.9147 111.859 38.8808 111.859C47.8714 111.859 56.5431 109.989 58.2571 109.598C58.6301 108.189 60.2877 101.723 63.0993 87.4621C55.7749 85.8545 54.1002 71.3119 52.8698 60.6222C52.7561 59.6308 52.6456 58.6735 52.5361 57.7671C52.5117 57.5684 52.5999 57.375 52.7656 57.2623C52.8485 57.2071 61.158 51.5275 63.0929 46.5514C63.1461 46.4154 63.2544 46.307 63.3905 46.2518C63.5265 46.1965 63.6795 46.2018 63.8112 46.2624C63.8357 46.2741 66.2754 47.3845 69.1561 47.3845C72.8889 47.3845 75.6081 45.5909 77.236 42.0524C78.2231 39.9092 78.1796 37.8945 77.1095 36.2252C75.7909 34.167 73.1163 32.9386 69.9541 32.9386C68.0531 32.9386 66.0735 33.3976 64.2129 34.2721C63.9366 35.8618 62.3831 43.3328 57.5537 43.3328C57.2306 43.3328 56.8959 43.2978 56.5602 43.2287C51.8231 42.2564 51.5182 30.7507 55.6538 9.03141C54.249 7.89657 46.3763 2.02789 32.9845 1.13531C20.4056 0.299057 12.4712 6.51838 8.00727 20.8059C6.97337 24.1095 5.68232 26.9987 4.54429 29.5468C1.6583 36.0042 -0.620925 41.1025 2.79424 48.837C7.23586 58.8944 17.1625 65.237 28.7023 65.3901C28.9668 65.3932 29.1889 65.5909 29.2219 65.8544C29.2336 65.9447 30.3822 75.0341 30.8104 81.8931C31.2652 89.1644 26.3805 90.8901 22.468 91.4883C22.0728 93.4902 20.1899 103.084 19.7393 106.53ZM38.8808 112.922C29.4737 112.922 22.7188 110.964 18.8053 107.106C18.6884 106.989 18.6321 106.827 18.6512 106.664C19.0805 103.08 21.4002 91.4075 21.499 90.9124C21.5425 90.6903 21.7232 90.5213 21.9474 90.4905C26.0341 89.9263 30.1569 88.4716 29.75 81.9601C29.3791 76.0106 28.4621 68.3695 28.2252 66.4431C16.4623 66.1222 6.37303 59.5735 1.82303 49.2664C-1.7834 41.0993 0.579777 35.8108 3.57415 29.1133C4.75575 26.4685 5.97773 23.7334 6.99144 20.4883C11.5616 5.86385 20.0645 -0.792207 33.0557 0.0748653C48.2039 1.08432 56.2531 8.12821 56.5878 8.4268C56.727 8.55218 56.7918 8.74027 56.7557 8.92304C52.8613 29.262 52.8677 41.3862 56.7737 42.1874C57.0394 42.2426 57.3018 42.2703 57.5537 42.2703C61.9337 42.2703 63.1949 33.9215 63.2066 33.8365C63.2321 33.6622 63.3416 33.5135 63.4978 33.437C65.5752 32.4158 67.8076 31.876 69.9541 31.876C73.4808 31.876 76.49 33.2871 78.0053 35.6514C79.2602 37.6129 79.3304 40.0441 78.2008 42.4966C75.9375 47.4153 72.0325 48.4471 69.1561 48.4471C66.8099 48.4471 64.7814 47.7862 63.8718 47.4366C61.7275 52.1077 55.0747 56.9446 53.6285 57.9573C53.7262 58.7701 53.8251 59.6223 53.926 60.5011C55.1469 71.1079 56.8184 85.6334 63.7921 86.5048C63.9377 86.5228 64.0705 86.6015 64.1566 86.7205C64.2427 86.8395 64.2767 86.9893 64.2469 87.1349C60.9646 103.833 59.2156 110.125 59.1975 110.187C59.1454 110.372 58.9988 110.515 58.8118 110.56C58.7151 110.583 49.002 112.922 38.8808 112.922Z" fill="#292929"/>
</svg>
