<svg width="379" height="265" viewBox="0 0 379 265" fill="none" xmlns="http://www.w3.org/2000/svg">
<path d="M194.23 1.05648C148.397 1.05648 104.163 24.1077 69.6766 65.9663C22.0845 123.728 12.0965 152.676 6.72965 168.227C6.45074 169.034 6.18452 169.808 5.92462 170.55C-0.872742 189.975 -0.548395 206.716 6.89131 220.307C15.7213 236.439 34.5615 248.02 62.8909 254.73C87.9716 260.67 125.806 263.942 169.427 263.944C169.431 263.944 169.441 263.944 169.445 263.944C238.274 263.944 321.966 255.44 353.803 236.44C371.017 226.167 379.967 200.068 377.157 168.327C372.609 116.913 335.051 44.6794 244.17 10.3101C227.932 4.16886 211.13 1.05648 194.23 1.05648ZM169.445 265C169.436 265 169.435 265 169.427 265C125.727 264.999 87.8057 261.716 62.6468 255.758C34.0153 248.976 14.9437 237.22 5.96476 220.814C-1.6239 206.95 -1.97359 189.922 4.92731 170.201C5.1872 169.46 5.4524 168.689 5.7313 167.882C11.1193 152.268 21.1474 123.203 68.861 65.2934C103.552 23.1875 148.076 0 194.23 0C211.258 0 228.187 3.13562 244.543 9.32128C285.32 24.7427 319.419 49.5329 343.154 81.0127C363.127 107.505 375.578 138.481 378.211 168.233C381.055 200.382 371.91 226.864 354.344 237.348C322.337 256.449 238.417 265 169.445 265Z" fill="#292929"/>
</svg>
