<svg width="161" height="50" viewBox="0 0 161 50" fill="none" xmlns="http://www.w3.org/2000/svg">
<path d="M84.4537 12.6072C84.4537 14.4074 83.0042 15.86 81.2009 15.86C79.3976 15.86 77.9481 14.4105 77.9481 12.6072C77.9481 10.8071 79.3538 9.35445 81.2009 9.35445C83.0448 9.40141 84.4537 10.8509 84.4537 12.6072ZM71.0074 19.1535C71.0074 19.4603 71.0074 19.9455 71.0074 19.9455C71.0074 19.9455 69.4702 17.9231 66.1298 17.9231C60.6824 17.9231 56.4185 22.0963 56.4185 27.8536C56.4185 33.5671 60.6355 37.7841 66.1298 37.7841C69.4702 37.7841 71.0074 35.7179 71.0074 35.7179V36.5538C71.0074 36.9482 71.3142 37.2582 71.7118 37.2582H75.7535V18.4522C75.7535 18.4522 72.0624 18.4522 71.7118 18.4522C71.3142 18.4522 71.0074 18.8028 71.0074 19.1535ZM71.0074 31.2379C70.2592 32.3367 68.7658 33.3041 66.9657 33.3041C63.7568 33.3041 61.2961 31.2817 61.2961 27.9006C61.2961 24.4725 63.7568 22.497 66.9657 22.497C68.722 22.497 70.3061 23.5082 71.0074 24.5633V31.2379ZM78.784 18.4522H83.5739V37.302H78.784V18.4522ZM150.624 17.9669C147.327 17.9669 145.746 19.9894 145.746 19.9894V9.40141H140.956V37.302C140.956 37.302 144.647 37.302 144.998 37.302C145.392 37.302 145.702 36.9514 145.702 36.5976V35.7617C145.702 35.7617 147.239 37.8279 150.58 37.8279C156.027 37.8279 160.291 33.6109 160.291 27.8974C160.291 22.1433 156.027 17.9669 150.624 17.9669ZM149.832 33.2165C147.988 33.2165 146.535 32.2491 145.79 31.1502V24.4287C146.538 23.4174 148.163 22.3624 149.832 22.3624C153.04 22.3624 155.501 24.3848 155.501 27.7659C155.501 31.2379 153.04 33.2165 149.832 33.2165ZM138.452 26.1411V37.3458H133.662V26.6702C133.662 23.5521 132.65 22.3217 129.971 22.3217C128.521 22.3217 127.028 23.0699 126.06 24.1657V37.302H121.27V18.4522H125.093C125.487 18.4522 125.797 18.8028 125.797 19.1566V19.9487C127.203 18.4992 129.05 17.9262 130.894 17.9262C133.004 17.9262 134.76 18.5399 136.166 19.7264C137.794 21.1759 138.452 22.976 138.452 26.1411ZM109.54 17.9669C106.243 17.9669 104.662 19.9894 104.662 19.9894V9.40141H99.8722V37.302C99.8722 37.302 103.563 37.302 103.914 37.302C104.308 37.302 104.618 36.9514 104.618 36.5976V35.7617C104.618 35.7617 106.155 37.8279 109.496 37.8279C114.943 37.8279 119.207 33.6109 119.207 27.8974C119.251 22.1433 114.99 17.9669 109.54 17.9669ZM108.751 33.2165C106.907 33.2165 105.454 32.2491 104.709 31.1502V24.4287C105.457 23.4174 107.082 22.3624 108.751 22.3624C111.96 22.3624 114.42 24.3848 114.42 27.7659C114.417 31.2379 111.957 33.2165 108.751 33.2165ZM95.699 17.9669C97.1485 17.9669 97.8968 18.2299 97.8968 18.2299V22.6692C97.8968 22.6692 93.8989 21.3074 91.3944 24.1625V37.3427H86.6044V18.4491C86.6044 18.4491 90.2955 18.4491 90.6461 18.4491C91.0406 18.4491 91.3505 18.7997 91.3505 19.1535V19.9455C92.2741 18.8905 94.2057 17.9669 95.699 17.9669ZM45.7429 35.5864C45.4799 34.9728 45.2607 34.3122 44.9946 33.7862C44.6002 32.8627 44.2026 32.0299 43.8519 31.2379L43.8081 31.194C40.3362 23.6804 36.6451 16.0791 32.7349 8.56553L32.6034 8.25872C32.209 7.51048 31.8114 6.72156 31.4169 5.88567C30.9348 4.96212 30.4057 4.0417 29.6168 3.11815C28.0358 1.09573 25.7065 0 23.2458 0C20.7413 0 18.4997 1.09886 16.8311 2.98666C16.0829 3.91021 15.5131 4.83063 15.0309 5.75418C14.6365 6.54624 14.2389 7.33517 13.8444 8.12723L13.7129 8.43404C9.84655 15.9477 6.11165 23.5489 2.63974 31.0625L2.59591 31.1502C2.24527 31.9423 1.84768 32.8189 1.45321 33.6986C1.19023 34.2684 0.971088 34.8413 0.70498 35.4987C0.0444079 37.3427 -0.13091 39.1021 0.091368 40.9023C0.661151 44.681 3.16569 47.7991 6.59378 49.2079C7.91179 49.7777 9.22981 50 10.6355 50C11.0299 50 11.559 49.9562 11.9535 49.9123C13.6221 49.6932 15.2939 49.1641 16.9626 48.1999C19.0288 47.0572 20.9604 45.3885 23.1582 42.9716C25.3559 45.3885 27.3752 47.0133 29.3538 48.1999C31.0224 49.1672 32.6942 49.6932 34.3629 49.9123C34.7573 49.9562 35.2864 50 35.6809 50C37.0865 50 38.4922 49.737 39.7226 49.2079C43.2383 47.8023 45.699 44.5933 46.225 40.9023C46.6194 39.1898 46.4003 37.4335 45.7429 35.5864ZM23.1582 38.1786C20.4345 34.7505 18.7189 31.5447 18.1053 28.8648C17.8423 27.7221 17.7985 26.7109 17.9738 25.7905C18.0614 24.9984 18.3682 24.2972 18.7658 23.6804C19.7332 22.3186 21.3142 21.4827 23.1582 21.4827C25.0021 21.4827 26.6739 22.2747 27.5505 23.6804C27.945 24.294 28.2549 24.9984 28.3426 25.7905C28.4741 26.714 28.4302 27.7253 28.2111 28.8648C27.6382 31.5447 25.8819 34.7536 23.1582 38.1786ZM43.1507 40.5516C42.8 43.1438 41.0406 45.4292 38.5799 46.3966C37.3934 46.8787 36.0753 47.0572 34.7573 46.8787C33.4831 46.7472 32.2528 46.3089 30.9348 45.5607C29.1346 44.5495 27.3314 43.0123 25.2213 40.6831C28.5179 36.6414 30.5372 32.9065 31.2854 29.6099C31.636 28.0728 31.6799 26.6671 31.5484 25.3491C31.3292 24.0749 30.8878 22.9322 30.1865 21.921C28.6494 19.6794 26.0134 18.3614 23.1112 18.3614C20.2091 18.3614 17.62 19.7232 16.0359 21.921C15.3315 22.9322 14.8932 24.0749 14.674 25.3491C14.4549 26.6671 14.5426 28.1166 14.937 29.6099C15.6853 32.9065 17.7484 36.6852 21.0011 40.7269C18.9349 43.0123 17.0909 44.5933 15.2877 45.6045C13.9696 46.3528 12.7393 46.7472 11.4651 46.9225C10.1033 47.054 8.82908 46.8787 7.64255 46.4404C5.18184 45.4292 3.42554 43.1877 3.07177 40.5955C2.94028 39.3213 3.02794 38.0909 3.51006 36.6852C3.64155 36.2031 3.90453 35.674 4.17064 35.1042C4.52127 34.3122 4.91887 33.4356 5.31333 32.5997L5.35716 32.5121C8.82908 25.0423 12.5201 17.441 16.3865 10.015L16.518 9.70822C16.9125 8.95999 17.3101 8.17106 17.7045 7.42283C18.099 6.63077 18.5404 5.88567 19.1102 5.2251C20.1653 4.03857 21.5709 3.38113 23.1081 3.38113C24.6452 3.38113 26.0509 4.0417 27.106 5.2251C27.6757 5.88567 28.1172 6.63077 28.5116 7.42283C28.9061 8.17106 29.3037 8.95999 29.6982 9.70822L29.8296 10.015C33.6522 17.4848 37.3433 25.0861 40.8152 32.5559V32.5997C41.2096 33.3918 41.5634 34.3122 41.9579 35.1042C42.2208 35.7179 42.44 36.2031 42.6184 36.6852C43.1945 38.0033 43.3698 39.2336 43.1507 40.5516Z" fill="#FF5A5F"/>
</svg>
